HIERARCHY
ROOT Hips
{
	OFFSET	0.00	0.00	0.00
	CHANNELS 6 Xposition Yposition Zposition Zrotation Xrotation Yrotation
	JOINT LeftUpLeg
	{
		OFFSET	 0.126116	-0.014019	-0.065224
		CHANNELS 3 Zrotation Xrotation Yrotation
		JOINT LeftLeg
		{
			OFFSET	 0.000000	 0.000000	 0.569914
			CHANNELS 3 Zrotation Xrotation Yrotation
			JOINT LeftFoot
			{
				OFFSET	 0.000000	 0.000000	 0.544423
				CHANNELS 3 Zrotation Xrotation Yrotation
				JOINT LeftToeBase
				{
					OFFSET	 0.000000	 0.000000	 0.207117
					CHANNELS 3 Zrotation Xrotation Yrotation
					End Site
					{
						OFFSET	 0.000000	 0.000000	 0.207117
					}
				}
			}
		}
	}
	JOINT RightUpLeg
	{
		OFFSET	-0.124023	-0.008373	-0.065224
		CHANNELS 3 Zrotation Xrotation Yrotation
		JOINT RightLeg
		{
			OFFSET	 0.000000	 0.000000	 0.570047
			CHANNELS 3 Zrotation Xrotation Yrotation
			JOINT RightFoot
			{
				OFFSET	 0.000000	 0.000000	 0.544354
				CHANNELS 3 Zrotation Xrotation Yrotation
				JOINT RightToeBase
				{
					OFFSET	 0.000000	 0.000000	 0.207540
					CHANNELS 3 Zrotation Xrotation Yrotation
					End Site
					{
						OFFSET	 0.000000	 0.000000	 0.207540
					}
				}
			}
		}
	}
	JOINT Spine
	{
		OFFSET	 0.000184	-0.007763	 0.117403
		CHANNELS 3 Zrotation Xrotation Yrotation
		JOINT Spine1
		{
			OFFSET	 0.000000	 0.000000	 0.137269
			CHANNELS 3 Zrotation Xrotation Yrotation
			JOINT Spine2
			{
				OFFSET	 0.000000	 0.000000	 0.156879
				CHANNELS 3 Zrotation Xrotation Yrotation
				JOINT LeftShoulder
				{
					OFFSET	 0.080501	-0.002496	 0.160144
					CHANNELS 3 Zrotation Xrotation Yrotation
					JOINT LeftArm
					{
						OFFSET	 0.000000	 0.000000	 0.164363
						CHANNELS 3 Zrotation Xrotation Yrotation
						JOINT LeftForeArm
						{
							OFFSET	 0.000000	 0.000000	 0.364576
							CHANNELS 3 Zrotation Xrotation Yrotation
							JOINT LeftHand
							{
								OFFSET	 0.000000	 0.000000	 0.360812
								CHANNELS 3 Zrotation Xrotation Yrotation
								JOINT LeftHandIndex1
								{
									OFFSET	 0.000000	 0.000000	 0.086006
									CHANNELS 3 Zrotation Xrotation Yrotation
									JOINT LeftHandIndex2
									{
										OFFSET	 0.000000	 0.000000	 0.047236
										CHANNELS 3 Zrotation Xrotation Yrotation
										JOINT LeftHandIndex3
										{
											OFFSET	-0.004284	-0.000551	 0.038166
											CHANNELS 3 Zrotation Xrotation Yrotation
											End Site
											{
												OFFSET	-0.004284	-0.000551	 0.038166
											}
										}
									}
								}
							}
						}
					}
				}
				JOINT Neck
				{
					OFFSET	 0.000000	 0.000000	 0.176489
					CHANNELS 3 Zrotation Xrotation Yrotation
					JOINT Head
					{
						OFFSET	 0.000000	-0.001747	 0.077940
						CHANNELS 3 Zrotation Xrotation Yrotation
						End Site
						{
							OFFSET	 0.000000	-0.001747	 0.077940
						}
					}
				}
				JOINT RightShoulder
				{
					OFFSET	-0.080363	 0.000306	 0.159706
					CHANNELS 3 Zrotation Xrotation Yrotation
					JOINT RightArm
					{
						OFFSET	 0.000000	 0.000000	 0.164196
						CHANNELS 3 Zrotation Xrotation Yrotation
						JOINT RightForeArm
						{
							OFFSET	 0.000000	 0.000000	 0.365611
							CHANNELS 3 Zrotation Xrotation Yrotation
							JOINT RightHand
							{
								OFFSET	 0.000000	 0.000000	 0.360648
								CHANNELS 3 Zrotation Xrotation Yrotation
								JOINT RightHandIndex1
								{
									OFFSET	 0.000000	 0.000000	 0.069977
									CHANNELS 3 Zrotation Xrotation Yrotation
									JOINT RightHandIndex2
									{
										OFFSET	 0.000000	 0.000000	 0.052305
										CHANNELS 3 Zrotation Xrotation Yrotation
										JOINT RightHandIndex3
										{
											OFFSET	 0.009002	-0.000782	 0.042196
											CHANNELS 3 Zrotation Xrotation Yrotation
											End Site
											{
												OFFSET	 0.009002	-0.000782	 0.042196
											}
										}
									}
								}
							}
						}
					}
				}
			}
		}
	}
}
MOTION
Frames:    5
Frame Time: 0.03333334
 0.012462	 0.062873	 1.200480	 4.726037	-1.479161	-3.396381	 0.642825	-12.602050	-171.430700	 0.725837	-39.223460	 0.235938	 50.740670	 80.773160	-54.545870	-2.370235	 31.474000	-0.066738	-4.632249	-29.697430	-175.012600	 10.961890	-53.199320	 9.431335	 18.582810	 76.205640	-14.631360	 2.358487	 33.071110	 0.104878	-0.857163	 8.792109	 1.268355	 0.586133	 2.531870	 1.884701	-5.041106	-2.619234	-2.347294	-93.886020	 58.913520	 175.506400	 20.790140	 40.209420	-35.368010	-0.955883	-0.056740	-0.506586	 1.232813	-3.466366	-6.872276	-4.870436	 19.228580	-2.788486	-3.881635	 21.471380	 2.202868	-4.806952	 5.560965	 0.146060	-0.092195	-5.055672	 0.175835	-7.060660	 2.084580	 2.364872	 89.796530	 61.626050	-179.965500	-19.879570	 51.918850	 9.758443	-1.426469	-2.658785	 13.696090	-5.002819	 11.067850	 0.648062	 6.296617	 25.181710	-0.552532	 1.840976	 45.058100	-6.953389	 0.479036	 24.483000	 3.592275
 0.012235	 0.059445	 1.199445	 5.063993	-1.315262	-3.388377	 0.331284	-12.777780	-171.446000	 0.962086	-39.497910	 0.387593	 51.528260	 80.935420	-55.519010	-2.369659	 31.571620	-0.068946	-5.350330	-30.309700	-175.034600	 11.302620	-53.027510	 9.686976	 25.132200	 78.727270	-21.645300	 2.358829	 33.020950	 0.103711	-1.098068	 8.716377	 1.217915	 0.603002	 2.367899	 1.930919	-5.091995	-2.598644	-2.350124	-93.948330	 58.949450	 175.369000	 20.968620	 39.884290	-35.620680	-1.263095	-0.054094	-0.507973	 1.393392	-3.554563	-7.417765	-4.870173	 19.241540	-2.790603	-3.878907	 21.506280	 2.200095	-4.806324	 5.568360	 0.145627	-0.073582	-5.077879	 0.185347	-7.046817	 2.067490	 2.288652	 89.776990	 61.650400	 179.987900	-19.686570	 52.075030	 9.321101	-1.535200	-2.719805	 13.860460	-4.987216	 11.267200	 0.573225	 6.292512	 24.739010	-0.539129	 1.900983	 44.575260	-7.006911	 0.548175	 24.180030	 3.557186
 0.011849	 0.052233	 1.197620	 5.561733	-0.888581	-3.403926	-0.120991	-13.126400	-171.456600	 1.193148	-39.929460	 0.539446	 52.768310	 81.136850	-56.947810	-2.368810	 31.713230	-0.072146	-6.632090	-31.640210	-175.095600	 12.088310	-52.479510	 10.252210	 42.247960	 82.020260	-39.631760	 2.358984	 32.999070	 0.103201	-1.399468	 8.438957	 1.112340	 0.617885	 2.133410	 2.070644	-5.181626	-2.590466	-2.391709	-94.067940	 58.974170	 175.110900	 21.056090	 39.270640	-36.009820	-1.486199	-0.052321	-0.510045	 1.815695	-3.787128	-7.898962	-4.866376	 19.340010	-2.797304	-3.872328	 21.590400	 2.193400	-4.804835	 5.585872	 0.144605	-0.047780	-5.098536	 0.218669	-7.049227	 2.046162	 2.207944	 89.731500	 61.730290	 179.879000	-19.357890	 52.392040	 8.536158	-1.897228	-2.862966	 14.098270	-5.085452	 11.605390	 0.401918	 6.281189	 23.898580	-0.546767	 2.001831	 43.742700	-7.096532	 0.724661	 23.399100	 3.468959
 0.011375	 0.042711	 1.195679	 6.053822	-0.437720	-3.428826	-0.593990	-13.352190	-171.483700	 1.405827	-40.312100	 0.681353	 54.418220	 81.399850	-58.763030	-2.367964	 31.852570	-0.075313	-7.900672	-33.101240	-175.204600	 12.691370	-51.576260	 10.611530	 76.792180	 83.464900	-75.159390	 2.359069	 32.986050	 0.102890	-1.699083	 8.138179	 1.003166	 0.620821	 1.936044	 2.216880	-5.272863	-2.601257	-2.438581	-94.190350	 58.994210	 174.847000	 21.000310	 38.519310	-36.474420	-1.646116	-0.050765	-0.509413	 2.233119	-4.025109	-8.322306	-4.862048	 19.450200	-2.804556	-3.865386	 21.678760	 2.186354	-4.803277	 5.604241	 0.143531	-0.022583	-5.116907	 0.254760	-7.055261	 2.025813	 2.133426	 89.684110	 61.816380	 179.764800	-19.026580	 52.743840	 7.646957	-2.288911	-3.017554	 14.335460	-5.198251	 11.946870	 0.222126	 6.269038	 23.038700	-0.558876	 2.100529	 42.901420	-7.183805	 0.908644	 22.573570	 3.379115
 0.011195	 0.030900	 1.193699	 6.287526	-0.017916	-3.629846	-0.777900	-13.261320	-171.337200	 1.526423	-40.461000	 0.761713	 56.906280	 81.685750	-61.362590	-2.366604	 32.070890	-0.080296	-8.253997	-34.594890	-175.034400	 13.139410	-50.308930	 10.779750	 92.285700	 82.573020	-91.633620	 2.360358	 32.793000	 0.098426	-1.820819	 7.785715	 1.083104	 0.633446	 1.980703	 2.335342	-5.338695	-2.668787	-2.491339	-94.290530	 58.989350	 174.634200	 20.722760	 37.640230	-37.061290	-2.106944	-0.046888	-0.511523	 2.214844	-4.415991	-8.034374	-4.853221	 19.651310	-2.812766	-3.855932	 21.798790	 2.176752	-4.797959	 5.666837	 0.139861	-0.012568	-5.154235	 0.288589	-7.083765	 2.004805	 2.118600	 89.612580	 61.897800	 179.592100	-18.657160	 53.084340	 6.761012	-2.933233	-3.232552	 14.519220	-5.446421	 12.331870	-0.293988	 6.252043	 22.041630	-0.593364	 2.190621	 42.109600	-7.263084	 1.135332	 21.540560	 3.271463
